<?xml version="1.0" encoding="UTF-8"?><svg id="Layer_2" xmlns="http://www.w3.org/2000/svg" viewBox="0 0 500 300"><defs><style>.cls-1{fill:#1f008b;}.cls-1,.cls-2{stroke-width:0px;}.cls-2{fill:#fff;}</style></defs><g id="Layer_1-2"><rect class="cls-1" width="500" height="300"/><path class="cls-2" d="M123.35,134.3c.63-.28,1.52-.58,2.69-.9,1.17-.31,2.35-.47,3.54-.47,2.11,0,3.86.31,5.25.94,1.4.63,2.23,1.57,2.52,2.82,1.02,3.36,1.94,6.43,2.73,9.22.8,2.79,1.57,5.5,2.31,8.11.74,2.62,1.48,5.35,2.22,8.2h.43c.8-4.78,1.51-9.32,2.14-13.62.63-4.3,1.22-8.57,1.79-12.81.57-4.24,1.11-8.58,1.62-13.02,1.88-1.02,3.81-1.54,5.81-1.54,1.88,0,3.47.4,4.78,1.2,1.31.8,1.96,2.14,1.96,4.01,0,1.2-.14,2.93-.43,5.21-.29,2.28-.66,4.87-1.11,7.77-.46,2.9-.98,5.92-1.58,9.05-.6,3.13-1.23,6.19-1.88,9.18s-1.34,5.69-2.05,8.11c-.71,2.42-1.35,4.37-1.92,5.85-.8.63-2.02,1.18-3.67,1.67-1.65.48-3.36.73-5.12.73-2.28,0-4.24-.33-5.89-.98-1.65-.65-2.65-1.55-2.99-2.69-.57-1.65-1.21-3.59-1.92-5.81-.71-2.22-1.44-4.66-2.18-7.3-.74-2.65-1.48-5.39-2.22-8.24-.68,2.79-1.4,5.59-2.14,8.41-.74,2.82-1.45,5.45-2.14,7.9-.68,2.45-1.31,4.56-1.88,6.32-.74.63-1.85,1.18-3.33,1.67-1.48.48-3.13.73-4.95.73-2.17,0-4.14-.34-5.94-1.03-1.79-.68-2.98-1.57-3.54-2.65-.57-1.31-1.24-3.29-2.01-5.94-.77-2.65-1.57-5.69-2.39-9.14-.83-3.44-1.61-7.05-2.35-10.8-.74-3.76-1.42-7.41-2.05-10.97-.63-3.56-1.11-6.76-1.45-9.61.74-.63,1.72-1.22,2.95-1.79,1.22-.57,2.58-.85,4.06-.85,1.88,0,3.4.41,4.57,1.24,1.17.83,1.92,2.21,2.26,4.14.91,5.3,1.66,9.81,2.26,13.54.6,3.73,1.11,6.95,1.54,9.65.43,2.71.81,5.04,1.15,7,.34,1.96.71,3.77,1.11,5.42h.43c.57-2.33,1.11-4.53,1.62-6.58.51-2.05,1.05-4.1,1.62-6.15.57-2.05,1.17-4.3,1.79-6.75.63-2.45,1.28-5.27,1.96-8.46Z"/><path class="cls-2" d="M172.12,153.6v-32.11c.57-.11,1.44-.26,2.6-.43,1.17-.17,2.32-.26,3.46-.26,2.45,0,4.21.43,5.3,1.28,1.08.85,1.62,2.48,1.62,4.87v26.65h-12.98ZM185.1,137.37v35.96c-.57.17-1.41.33-2.52.47-1.11.14-2.26.21-3.46.21-2.56,0-4.37-.46-5.42-1.37s-1.58-2.48-1.58-4.7v-30.58h12.98Z"/><path class="cls-2" d="M197.23,156.76v-30.58c0-1.08.31-1.93.94-2.56.63-.63,1.45-1.11,2.48-1.45,1.88-.68,4.13-1.17,6.75-1.45,2.62-.28,4.98-.43,7.09-.43,7.69,0,13.51,1.64,17.47,4.91,3.96,3.27,5.94,7.73,5.94,13.37,0,3.64-.87,6.83-2.61,9.57-1.74,2.73-4.23,4.85-7.47,6.36-3.25,1.51-7.15,2.26-11.7,2.26h-18.87ZM210.21,151.04v22.29c-.57.17-1.41.33-2.52.47-1.11.14-2.26.21-3.46.21-2.56,0-4.37-.46-5.42-1.37-1.05-.91-1.58-2.48-1.58-4.7v-16.91h12.98ZM215.25,146.51c2.9,0,5.21-.68,6.92-2.05s2.56-3.33,2.56-5.89-.81-4.51-2.43-5.85c-1.62-1.34-3.94-2.01-6.96-2.01-1.08,0-2.04.03-2.86.08-.83.06-1.61.17-2.35.34v15.37h5.12Z"/><path class="cls-2" d="M246.59,157.78v-29.29c0-2.11.63-3.77,1.88-5,1.25-1.22,2.93-1.84,5.04-1.84,1.2,0,2.32.09,3.37.26,1.05.17,1.84.31,2.35.43v35.44h-12.64ZM259.23,137.28v35.61c-.51.12-1.3.26-2.35.43-1.05.17-2.18.26-3.37.26-2.11,0-3.79-.63-5.04-1.88-1.25-1.25-1.88-2.93-1.88-5.04v-29.38h12.64ZM253.51,121.66h28.18c.34.51.65,1.2.94,2.05.28.85.43,1.79.43,2.82,0,1.82-.4,3.17-1.2,4.06-.8.88-1.91,1.32-3.33,1.32h-25.02v-10.25ZM253.51,141.9h25.79c.34.57.64,1.28.9,2.14s.38,1.79.38,2.82c0,1.82-.4,3.16-1.2,4.01s-1.88,1.28-3.24,1.28h-22.63v-10.25ZM253.51,163.33h28.61c.34.51.64,1.21.9,2.09.26.88.38,1.87.38,2.95,0,1.77-.4,3.07-1.2,3.93-.8.85-1.88,1.28-3.25,1.28h-25.45v-10.25Z"/><path class="cls-2" d="M293.05,153.6v-32.11c.57-.11,1.44-.26,2.6-.43,1.17-.17,2.29-.26,3.37-.26,2.45,0,4.23.43,5.34,1.28,1.11.85,1.66,2.48,1.66,4.87v26.65h-12.98ZM306.03,137.54v35.36l-6.06.68c-2.11,0-3.79-.63-5.04-1.88-1.25-1.25-1.88-2.93-1.88-5.04v-29.12h12.98ZM299.97,163.08h26.82c.4.51.74,1.23,1.03,2.14.28.91.43,1.88.43,2.9,0,1.82-.4,3.19-1.2,4.1-.8.91-1.91,1.37-3.33,1.37h-23.74v-10.51Z"/><path class="cls-2" d="M336.61,153.6v-32.11c.57-.11,1.44-.26,2.6-.43,1.17-.17,2.32-.26,3.46-.26,2.45,0,4.21.43,5.3,1.28,1.08.85,1.62,2.48,1.62,4.87v26.65h-12.98ZM349.59,137.37v35.96c-.57.17-1.41.33-2.52.47-1.11.14-2.26.21-3.46.21-2.56,0-4.37-.46-5.42-1.37-1.05-.91-1.58-2.48-1.58-4.7v-30.58h12.98Z"/><path class="cls-2" d="M407.16,146.25v25.54c-.68.68-1.7,1.24-3.03,1.66-1.34.43-2.92.64-4.74.64-1.94,0-3.73-.31-5.38-.94-1.65-.63-3.02-2.02-4.1-4.19l-10.42-19.73c-.63-1.25-1.25-2.51-1.88-3.76-.63-1.25-1.23-2.52-1.79-3.8-.57-1.28-1.14-2.57-1.71-3.89l-12.38,2.82v-16.74c.68-.97,1.75-1.71,3.2-2.22,1.45-.51,3-.77,4.65-.77,1.94,0,3.74.31,5.42.94,1.68.63,3.03,1.99,4.06,4.1l10.5,19.81c.63,1.2,1.25,2.43,1.88,3.72.63,1.28,1.22,2.56,1.79,3.84.57,1.28,1.11,2.58,1.62,3.89l12.3-2.82v-8.11ZM373.51,136.18c.23,2.39.4,4.78.51,7.17.11,2.39.17,4.71.17,6.96v23.1c-.46.11-1.24.24-2.35.38-1.11.14-2.23.21-3.37.21-2.51,0-4.26-.43-5.25-1.28-1-.85-1.49-2.39-1.49-4.61v-31.86l11.79-.09ZM395.37,158.64c-.4-4.21-.61-8.2-.64-11.96s-.04-7.35-.04-10.76v-14.43c.51-.11,1.31-.26,2.39-.43,1.08-.17,2.22-.26,3.42-.26,2.45,0,4.17.44,5.17,1.32,1,.88,1.49,2.41,1.49,4.57v31.77l-11.79.17Z"/><path class="cls-2" d="M419.28,153.51v-32.03c.57-.11,1.44-.26,2.6-.43,1.17-.17,2.29-.26,3.37-.26,2.45,0,4.23.43,5.34,1.28,1.11.85,1.66,2.48,1.66,4.87v26.56h-12.98ZM432.27,137.28v36.04c-.57.17-1.41.34-2.52.51-1.11.17-2.26.26-3.46.26-2.56,0-4.37-.47-5.42-1.41s-1.58-2.52-1.58-4.74v-30.66h12.98ZM424.66,151.12l26.82-29.98c3.24,0,5.59.64,7.05,1.92,1.45,1.28,2.18,2.78,2.18,4.48,0,1.31-.33,2.53-.98,3.67-.66,1.14-1.69,2.42-3.12,3.84l-15.46,15.37-16.48.68ZM440.81,144.2c4.78,5.07,9.05,9.59,12.81,13.58,3.76,3.99,6.8,7.17,9.14,9.56,0,2.17-.7,3.86-2.09,5.08-1.4,1.22-3.03,1.84-4.91,1.84-2.05,0-3.72-.51-5-1.54-1.28-1.03-2.55-2.22-3.8-3.59l-20.58-23.23,14.43-1.71Z"/><path class="cls-2" d="M47.29,174.42v-.44c.02-5.98,3.59-11.33,9.11-13.64,1.82-.76,3.74-1.14,5.72-1.14h4.84v5.04l3.26-1.88,2.88-1.66,2.5-1.44,3.64-2.11-3.64-2.1-2.5-1.44-6.14-3.55v5.05h-6.94c-1.23,0-2.47-.13-3.68-.4-6.97-1.51-12.36-7.27-13.4-14.33-.13-.85-.19-1.7-.19-2.55s.06-1.71.19-2.55c1.05-7.1,6.47-12.87,13.5-14.35,1.19-.25,2.39-.37,3.59-.37h25.73v.44c-.02,5.98-3.6,11.34-9.11,13.64-1.83.76-3.75,1.15-5.72,1.15h-4.84v-5.05l-6.14,3.55-2.51,1.44-3.63,2.1,3.64,2.1,2.5,1.44,3.6,2.08,2.54,1.46v-5.04h6.94c1.26,0,2.5.13,3.68.4,6.97,1.51,12.36,7.27,13.41,14.33.12.81.18,1.66.18,2.54s-.06,1.74-.18,2.56c-1.06,7.11-6.48,12.87-13.5,14.35-1.15.25-2.36.37-3.58.37h-25.73Z"/><path class="cls-2" d="M85.31,121c-.02,5.97-3.67,11.08-8.84,13.24-1.71.71-3.59,1.11-5.55,1.11h-4.4v-5.37l-3.92,2.27-2.88,1.66-2.5,1.44-4.3,2.48,4.3,2.48,2.5,1.44,3.6,2.08,3.2,1.84v-5.37h6.5c1.23,0,2.43.13,3.58.39,6.78,1.47,12.04,7.03,13.07,13.97.12.81.18,1.63.18,2.48s-.06,1.68-.18,2.49c-1.03,6.97-6.33,12.55-13.16,13.98-1.13.24-2.29.36-3.49.36h-25.29c.01-5.96,3.66-11.07,8.84-13.24,1.71-.71,3.58-1.11,5.55-1.11h4.4v5.37l3.92-2.26,2.88-1.66,2.5-1.44,4.3-2.49-4.3-2.48-2.5-1.44-3.6-2.08-3.2-1.85v5.37h-6.5c-1.23,0-2.43-.14-3.59-.39-6.77-1.47-12.03-7.03-13.06-13.97-.12-.81-.19-1.64-.19-2.48s.06-1.68.19-2.48c1.03-6.97,6.33-12.55,13.15-13.99,1.13-.24,2.3-.36,3.5-.36h25.29M86.19,120.12h-26.18c-1.22,0-2.46.13-3.68.38-7.21,1.52-12.77,7.44-13.84,14.72-.13.86-.19,1.74-.19,2.61s.07,1.74.2,2.61c.53,3.57,2.12,6.86,4.6,9.51,2.47,2.63,5.63,4.43,9.14,5.19,1.25.27,2.52.41,3.78.41h7.38v-4.73l1.87,1.08,3.6,2.08,2.5,1.44,2.98,1.71-2.98,1.72-2.5,1.44-2.88,1.66-2.6,1.5v-4.72h-5.28c-2.04,0-4.02.4-5.89,1.17-5.69,2.38-9.37,7.9-9.38,14.05v.88s.88,0,.88,0h25.29c1.26,0,2.49-.13,3.68-.38,7.2-1.51,12.76-7.42,13.85-14.71.12-.84.19-1.72.19-2.62s-.06-1.78-.19-2.61c-.53-3.57-2.12-6.86-4.61-9.51-2.47-2.63-5.64-4.43-9.15-5.19-1.21-.27-2.48-.41-3.77-.41h-7.38v4.72l-1.87-1.08-3.6-2.08-2.51-1.44-2.97-1.72,2.98-1.72,2.5-1.44,2.88-1.66,2.6-1.5v4.73h5.28c2.03,0,4.01-.4,5.89-1.18,5.68-2.37,9.36-7.89,9.38-14.05v-.89h0Z"/></g></svg>